<svg viewBox="0 0 50 50" xmlns="http://www.w3.org/2000/svg">
  <defs>
    <style>
      <![CDATA[
      .sprite { display: none; }
      .sprite:target { display: inline; }
    ]]>
    </style>
  </defs>
  <g class="sprite" id="checked">
    <g clip-path="url(#clip0_174_1088)">
    <path d="M25.0001 4.16663C13.5001 4.16663 4.16676 13.5 4.16676 25C4.16676 36.5 13.5001 45.8333 25.0001 45.8333C36.5001 45.8333 45.8334 36.5 45.8334 25C45.8334 13.5 36.5001 4.16663 25.0001 4.16663ZM20.8334 35.4166L10.4168 25L13.3543 22.0625L20.8334 29.5208L36.6459 13.7083L39.5834 16.6666L20.8334 35.4166Z" fill="#0F0F0F"/>
    </g>
    <defs>
    <clipPath id="clip0_174_1088">
    <rect width="50" height="50" fill="white"/>
    </clipPath>
    </defs>
  </g>
  <g class="sprite" id="checkmark">
    <g clip-path="url(#clip0_174_1100__checkmark)">
      <path d="M39.5833 6.25H10.4167C8.10417 6.25 6.25 8.125 6.25 10.4167V39.5833C6.25 41.875 8.10417 43.75 10.4167 43.75H39.5833C41.8958 43.75 43.75 41.875 43.75 39.5833V10.4167C43.75 8.125 41.8958 6.25 39.5833 6.25ZM20.8333 35.4167L10.4167 25L13.3542 22.0625L20.8333 29.5208L36.6458 13.7083L39.5833 16.6667L20.8333 35.4167Z" fill="currentColor"/>
    </g>
    <defs>
      <clipPath id="clip0_174_1100__checked">
        <rect width="50" height="50" fill="white"/>
      </clipPath>
    </defs>
  </g>
  <g class="sprite" id="visible">
    <path d="M24.9999 9.375C14.5832 9.375 5.6874 15.8542 2.08324 25C5.6874 34.1458 14.5832 40.625 24.9999 40.625C35.4166 40.625 44.3124 34.1458 47.9166 25C44.3124 15.8542 35.4166 9.375 24.9999 9.375ZM24.9999 35.4167C19.2499 35.4167 14.5832 30.75 14.5832 25C14.5832 19.25 19.2499 14.5833 24.9999 14.5833C30.7499 14.5833 35.4166 19.25 35.4166 25C35.4166 30.75 30.7499 35.4167 24.9999 35.4167ZM24.9999 18.75C21.5416 18.75 18.7499 21.5417 18.7499 25C18.7499 28.4583 21.5416 31.25 24.9999 31.25C28.4582 31.25 31.2499 28.4583 31.2499 25C31.2499 21.5417 28.4582 18.75 24.9999 18.75Z" fill="currentColor"/>
  </g>
  <g class="sprite" id="warning">
    <path d="M1.38892 44.4444H48.6111L25 4.16663L1.38892 44.4444ZM26.3889 37.5H23.6111V34.7222H26.3889V37.5ZM26.3889 30.5555H23.6111V20.8333H26.3889V30.5555Z" fill="currentColor"/>
  </g>
</svg>